<svg xmlns="http://www.w3.org/2000/svg" width="183" height="75" fill="none"><path fill="#fff" d="M34.726 13.333c0 2.56-2.052 4.647-4.568 4.647-2.517 0-4.568-2.087-4.568-4.647s2.051-4.647 4.568-4.647c2.516 0 4.568 2.087 4.568 4.647M10.724 27.945a3.889 3.889 0 0 0 1.2-.906 4.847 4.847 0 0 0 1.355-3.072c.039-.551-.078-1.024-.116-1.575a5.074 5.074 0 0 1 .193-1.694c.658-2.284 2.943-3.702 5.227-3.308 2.168.354 4.374-.867 5.148-2.954.736-1.93.116-4.214-1.51-5.475-1.587-1.26-3.87-1.26-5.535-.078a4.955 4.955 0 0 0-1.82 2.757 4.763 4.763 0 0 0-.077 1.654c.077.512.116 1.024.077 1.575-.27 2.363-2.284 4.175-4.607 4.214-.503 0-1.006-.118-1.548-.157-.542 0-1.084.079-1.626.275-1.046.355-1.936 1.143-2.478 2.088-1.007 1.772-.736 4.096.658 5.592a4.568 4.568 0 0 0 5.459 1.064m6.93-8.113c-.426.236-.852.512-1.2.866a4.618 4.618 0 0 0-1.317 3.033c-.039.512.077 1.024.116 1.536a4.844 4.844 0 0 1-.193 1.654c-.659 2.205-2.904 3.623-5.11 3.23a4.561 4.561 0 0 0-5.033 2.914c-.736 1.89-.116 4.096 1.51 5.356a4.527 4.527 0 0 0 5.42.079c.89-.67 1.548-1.615 1.78-2.718a4.54 4.54 0 0 0 .078-1.614 6.815 6.815 0 0 1-.078-1.536c.232-2.324 2.207-4.096 4.491-4.096.503 0 1.007.118 1.51.157a4.35 4.35 0 0 0 1.587-.276 4.641 4.641 0 0 0 2.439-2.048c1.006-1.732.736-4.017-.62-5.513-1.393-1.497-3.6-1.93-5.38-1.024"/><g filter="url(#a)"><path fill="#fff" d="M38.664 44.769h-6.459V24.586h6.459c6.314 0 10.15 4.036 10.15 10.091 0 6.026-3.836 10.092-10.15 10.092m-3.95-17.877v15.57h3.95c4.902 0 7.583-3.085 7.583-7.785 0-4.728-2.681-7.785-7.583-7.785zm23.4 18.05c-4.412 0-7.295-3.028-7.295-7.526 0-4.469 2.825-7.525 6.977-7.525s6.863 2.624 6.978 6.978c0 .317-.029.663-.058 1.009H53.298v.202c.087 2.797 1.846 4.757 4.642 4.757 2.076 0 3.691-1.096 4.181-2.998h2.393c-.576 2.94-2.998 5.103-6.4 5.103m-4.672-9.025h8.795c-.231-2.537-1.961-3.95-4.412-3.95-2.162 0-4.152 1.557-4.383 3.95m32.598-1.24c0 5.94-3.95 10.265-9.63 10.265-5.68 0-9.63-4.325-9.63-10.265s3.95-10.264 9.63-10.264c5.68 0 9.63 4.325 9.63 10.264m-16.694 0c0 4.642 2.855 7.958 7.064 7.958 4.21 0 7.064-3.315 7.064-7.958 0-4.642-2.854-7.958-7.064-7.958s-7.064 3.316-7.064 7.958m26.64-4.786c4.066 0 7.065 2.74 7.065 7.526 0 4.497-2.999 7.525-7.064 7.525-2.48 0-4.152-1.01-5.046-2.422v8.016h-2.365V30.064h2.048l.317 2.364c.98-1.355 2.566-2.537 5.046-2.537m-.23 12.946c2.912 0 4.873-2.22 4.873-5.42 0-3.201-1.96-5.421-4.873-5.421-2.883 0-4.844 2.22-4.844 5.363 0 3.23 1.96 5.478 4.844 5.478m10.635-1.903v-8.707h-2.653v-2.163h2.653v-4.123h2.364v4.123h3.806v2.163h-3.806v8.678c0 1.24.433 1.701 1.701 1.701h2.336v2.163h-2.566c-2.826 0-3.835-1.24-3.835-3.835m9.372-13.35c-.865 0-1.528-.634-1.528-1.528s.663-1.528 1.528-1.528 1.529.634 1.529 1.528-.664 1.528-1.529 1.528m-1.211 17.185V30.064h2.365v14.705zm21.722-14.878c3.056 0 5.564 1.759 5.564 6.401v8.477h-2.364v-8.333c0-2.883-1.269-4.382-3.489-4.382-2.451 0-3.95 1.845-3.95 4.843v7.872h-2.364v-8.333c0-2.883-1.298-4.382-3.547-4.382-2.422 0-3.892 2.018-3.892 4.959v7.756h-2.365V30.064h2.048l.317 2.018c.778-1.067 2.018-2.191 4.296-2.191 2.047 0 3.806.923 4.642 2.797.894-1.586 2.48-2.797 5.104-2.797m21.313 12.715h.749v2.163h-1.297c-1.961 0-2.624-.836-2.653-2.278-.922 1.327-2.393 2.451-4.93 2.451-3.23 0-5.421-1.615-5.421-4.296 0-2.941 2.047-4.585 5.911-4.585h4.325v-1.009c0-1.903-1.355-3.056-3.662-3.056-2.076 0-3.46.98-3.748 2.48h-2.365c.346-2.884 2.682-4.585 6.228-4.585 3.749 0 5.911 1.874 5.911 5.305v6.43c0 .779.289.98.952.98m-3.316-3.834v-.721h-4.556c-2.105 0-3.287.778-3.287 2.45 0 1.442 1.24 2.423 3.201 2.423 2.941 0 4.642-1.702 4.642-4.152"/></g><defs><filter id="a" width="174.187" height="74.179" x="8.178" y=".385" color-interpolation-filters="sRGB" filterUnits="userSpaceOnUse"><feFlood flood-opacity="0" result="BackgroundImageFix"/><feColorMatrix in="SourceAlpha" result="hardAlpha" values="0 0 0 0 0 0 0 0 0 0 0 0 0 0 0 0 0 0 127 0"/><feOffset/><feGaussianBlur stdDeviation="12.014"/><feComposite in2="hardAlpha" operator="out"/><feColorMatrix values="0 0 0 0 1 0 0 0 0 1 0 0 0 0 1 0 0 0 0.2 0"/><feBlend in2="BackgroundImageFix" result="effect1_dropShadow_52_39449"/><feBlend in="SourceGraphic" in2="effect1_dropShadow_52_39449" result="shape"/></filter></defs></svg>