<svg width="1340" height="357" viewBox="0 0 1340 357" fill="none" xmlns="http://www.w3.org/2000/svg">
<mask id="mask0_2_156" style="mask-type:alpha" maskUnits="userSpaceOnUse" x="0" y="0" width="1340" height="357">
<ellipse cx="670" cy="178.5" rx="670" ry="178.5" fill="url(#paint0_radial_2_156)"/>
</mask>
<g mask="url(#mask0_2_156)">
<path d="M602.897 -260.725L602.897 526.725" stroke="#172136"/>
<path d="M511.333 -260.725L511.333 526.725" stroke="#172136"/>
<path d="M695.425 -260.725L695.425 526.725" stroke="#172136"/>
<path d="M786.989 -260.725L786.989 526.725" stroke="#172136"/>
<path d="M879.517 -260.725L879.517 526.725" stroke="#172136"/>
<path d="M971.081 -260.725L971.081 526.725" stroke="#172136"/>
<path d="M1062.64 -260.725L1062.64 526.725" stroke="#172136"/>
<path d="M1155.17 -260.725L1155.17 526.725" stroke="#172136"/>
<path d="M1246.74 -260.725L1246.74 526.725" stroke="#172136"/>
<path d="M649.161 -260.725L649.161 526.725" stroke="#172136"/>
<path d="M557.597 -260.725L557.597 526.725" stroke="#172136"/>
<path d="M741.689 -260.725L741.689 526.725" stroke="#172136"/>
<path d="M833.253 -260.725L833.253 526.725" stroke="#172136"/>
<path d="M924.817 -260.725L924.817 526.725" stroke="#172136"/>
<path d="M1017.34 -260.725L1017.34 526.725" stroke="#172136"/>
<path d="M1108.91 -260.725L1108.91 526.725" stroke="#172136"/>
<path d="M1201.44 -260.725L1201.44 526.725" stroke="#172136"/>
<path d="M1293 -260.725L1293 526.725" stroke="#172136"/>
<path d="M509.406 341.669L1293 341.669" stroke="#172136"/>
<path d="M509.406 249.141L1293 249.141" stroke="#172136"/>
<path d="M509.406 156.614L1293 156.614" stroke="#172136"/>
<path d="M509.406 64.0858L1293 64.0857" stroke="#172136"/>
<path d="M509.406 295.405L1293 295.405" stroke="#172136"/>
<path d="M509.406 202.878L1293 202.878" stroke="#172136"/>
<path d="M509.406 110.349L1293 110.349" stroke="#172136"/>
<path d="M509.406 17.8223L1293 17.8222" stroke="#172136"/>
<path d="M5.32233 -260.725L5.32236 526.725" stroke="#172136"/>
<path d="M97.8501 -260.725L97.8501 526.725" stroke="#172136"/>
<path d="M189.414 -260.725L189.414 526.725" stroke="#172136"/>
<path d="M280.978 -260.725L280.978 526.725" stroke="#172136"/>
<path d="M373.506 -260.725L373.506 526.725" stroke="#172136"/>
<path d="M465.07 -260.725L465.07 526.725" stroke="#172136"/>
<path d="M51.5862 -260.725L51.5862 526.725" stroke="#172136"/>
<path d="M143.15 -260.725L143.15 526.725" stroke="#172136"/>
<path d="M235.678 -260.725L235.678 526.725" stroke="#172136"/>
<path d="M327.242 -260.725L327.242 526.725" stroke="#172136"/>
<path d="M419.769 -260.725L419.77 526.725" stroke="#172136"/>
<path d="M511.333 -260.725L511.333 526.725" stroke="#172136"/>
<path d="M-272.261 341.67L511.333 341.67" stroke="#172136"/>
<path d="M-272.261 249.142L511.333 249.142" stroke="#172136"/>
<path d="M-272.261 156.614L511.333 156.614" stroke="#172136"/>
<path d="M-272.261 64.0857L511.333 64.0857" stroke="#172136"/>
<path d="M-272.261 295.405L511.333 295.405" stroke="#172136"/>
<path d="M-272.261 202.878L511.333 202.878" stroke="#172136"/>
<path d="M-272.261 110.35L511.333 110.35" stroke="#172136"/>
<path d="M-272.261 17.8221L511.333 17.822" stroke="#172136"/>
</g>
<defs>
<radialGradient id="paint0_radial_2_156" cx="0" cy="0" r="1" gradientUnits="userSpaceOnUse" gradientTransform="translate(670 178.5) rotate(90) scale(178.5 670)">
<stop stop-color="#0054FF"/>
<stop offset="1" stop-color="#0A0C0F" stop-opacity="0"/>
</radialGradient>
</defs>
</svg>
